PathFileType	4	(X/Y/Z)	D:\TRACE\v60_Jaco2_6-2-23\JustArmDRS_Motion2_3-v60.trc
DataRate	CameraRate	NumFrames	NumMarkers	Units	OrigDataRate	OrigDataStartFrame	OrigNumFrames
100.00	100.00	      24	9	mm	100.00	5227	      6969
Frame#	Time	front left toe			Front right toe			aft left toe			aft right toe			Arm			FL body			FR body			AL Body			AR Body			
		X1	Y1	Z1	X2	Y2	Z2	X3	Y3	Z3	X4	Y4	Z4	X5	Y5	Z5	X6	Y6	Z6	X7	Y7	Z7	X8	Y8	Z8	X9	Y9	Z9	

5227	52.260	-237.74747	-0.73275	-179.11507	170.87202	-2.20879	-224.22690	-171.73521	52.41409	425.10272	231.45477	57.33865	412.37274	19.58394	1058.59912	-725.93457	-146.52724	564.40094	-339.11322	12.47897	568.44220	-356.95218	-44.33185	618.20642	598.59253	111.59243	616.11182	583.26208	
5228	52.270	-237.13583	-0.53871	-179.00163	171.94298	-2.37884	-224.32486	-170.88458	52.22150	425.07104	232.06812	57.31580	412.22510	20.26185	1058.27026	-726.19525	-146.57574	564.61847	-339.69598	13.39674	568.32886	-357.33768	-43.78352	618.36707	598.41345	112.04382	616.49030	583.05383	
5229	52.280	-236.45509	-0.48587	-178.99490	172.60580	-2.30234	-224.36378	-169.86877	52.23519	424.97104	232.45850	57.23069	412.03113	21.26405	1057.65466	-726.53918	-145.41136	564.21069	-339.79373	14.21897	568.15765	-357.38712	-43.27530	618.53418	597.84216	112.58361	616.86090	582.90393	
5230	52.290	-235.55536	-0.51558	-178.88382	173.17982	-2.18764	-224.41689	-169.38628	52.24673	425.04129	233.75124	57.36565	412.14304	21.70784	1057.20032	-726.93158	-144.78221	564.08386	-339.82819	15.22675	568.08350	-357.74014	-42.84771	619.02423	598.22565	113.24090	617.10535	582.75830	
5231	52.300	-234.77849	-0.47239	-178.94861	174.09856	-2.06501	-224.23085	-168.57446	52.12948	425.13992	234.28053	57.09561	412.17496	22.73082	1056.58655	-727.19714	-144.05890	563.97168	-339.91269	15.19096	567.85376	-357.50540	-42.29066	619.30151	598.16357	113.92958	617.34863	582.73291	
5232	52.310	-234.22556	-0.26192	-178.92442	175.18118	-1.99082	-224.16356	-167.51399	51.72266	425.09647	234.82996	56.86589	412.21127	23.41812	1056.19482	-727.63770	-143.18611	563.68207	-340.05310	15.62586	567.37933	-357.16302	-41.47250	619.47540	597.99164	114.36179	617.43164	582.68109	
5233	52.320	-233.08524	-0.20012	-178.80725	175.72166	-1.99055	-224.28882	-166.68593	51.55853	425.00714	236.02811	56.74006	412.20004	24.12305	1055.78760	-727.85242	-142.69589	563.51135	-340.06787	16.73063	567.00574	-357.20389	-40.98574	619.76050	597.92316	115.07318	617.95380	582.50842	
5234	52.330	-232.10233	-0.31498	-178.98503	176.55226	-1.80842	-224.25969	-166.09500	51.65004	425.22086	236.81108	56.72689	412.17899	24.90364	1055.37292	-728.04938	-141.99768	563.24182	-340.26157	18.02412	566.99133	-357.85391	-40.54936	620.03247	597.34357	115.99262	618.21747	582.40216	
5235	52.340	-231.39806	-0.23165	-178.71931	177.87761	-1.39627	-224.14937	-165.06190	51.29221	425.14865	237.61304	56.50242	412.26535	25.54483	1055.13794	-728.34753	-140.67943	562.91986	-340.16016	18.90173	566.76093	-357.88678	-39.48075	620.32092	597.22150	116.59682	618.30023	582.19208	
5236	52.350	-230.63734	-0.04101	-178.61620	178.59885	-1.24396	-224.04193	-164.12888	50.98580	425.08893	238.65514	56.32730	412.43729	26.33619	1054.87537	-728.73914	-140.09900	562.67371	-340.13947	19.24624	566.33228	-357.56674	-38.73498	620.44824	597.68219	117.27409	618.53833	582.43402	
5237	52.360	-229.69197	0.13173	-178.61470	179.20781	-1.35022	-223.83868	-163.52789	50.93198	425.07922	239.24139	55.83753	412.44299	27.38798	1054.32983	-728.99280	-139.28577	562.11670	-340.16092	20.03557	565.97070	-357.60684	-37.98955	620.36694	597.28137	117.99820	618.74048	582.40576	
5238	52.370	-228.63606	0.32123	-178.34920	180.44377	-1.28940	-223.72922	-162.35306	50.63631	425.29440	239.79459	55.71875	412.52490	28.41007	1053.45837	-729.16803	-138.38153	561.64484	-340.15701	20.87894	565.39606	-357.70801	-36.64839	620.78284	597.70221	119.28008	619.01550	582.81042	
5239	52.380	-228.03131	0.42766	-178.25519	181.11133	-1.23770	-223.75061	-161.58890	50.40380	425.34512	241.31075	55.70048	412.81052	29.12689	1052.54932	-729.48938	-137.66827	561.35425	-340.08896	22.75444	565.33752	-357.97202	-36.05847	621.00751	597.72668	119.87955	619.04883	582.75586	
5240	52.390	-227.01910	0.49870	-178.16675	180.57825	-1.22616	-223.89705	-160.51054	49.93805	425.58368	242.07603	55.25800	412.67316	29.96575	1051.61731	-729.94037	-136.51065	560.93866	-339.91595	23.28057	564.93604	-357.87729	-35.27431	621.09790	597.76764	120.84525	619.18793	582.78644	
5241	52.400	-225.99028	0.61785	-178.15732	181.61653	-0.96435	-223.70909	-159.60332	49.62157	425.77829	242.80920	55.05866	412.79504	30.81976	1050.86340	-730.09979	-135.81499	560.61884	-339.91669	23.14566	564.42279	-357.15582	-34.26222	621.17584	597.86090	121.55937	619.22742	582.50452	
5242	52.410	-224.94215	0.95879	-177.99193	182.28392	-0.82585	-223.57594	-158.76212	49.19546	425.88229	244.12277	54.77249	413.11124	31.44422	1050.32654	-730.30524	-135.03185	560.21942	-339.90372	24.48622	563.80627	-357.22433	-33.53674	621.19232	597.43915	122.67312	619.38269	582.51892	
5243	52.420	-224.05493	1.12973	-177.92612	183.43018	-0.47220	-223.44064	-157.59550	48.66921	426.14520	245.00305	54.34897	413.27005	32.32053	1049.85327	-730.46173	-133.75383	559.67120	-339.91055	25.42412	563.51550	-357.20428	-33.50693	621.19336	596.52069	123.75581	619.73572	582.44769	
5244	52.430	-223.08189	1.05912	-177.77864	184.30827	-0.26020	-223.35393	-156.70512	48.41000	426.23907	246.05196	54.11202	413.38794	33.55621	1049.45288	-730.57495	-132.80469	559.14038	-339.60037	26.76631	563.13123	-357.39877	-31.54961	621.89307	597.83826	154.60052	636.56042	596.75311	
5245	52.440	-222.03175	1.18241	-177.55307	185.63271	-0.05630	-223.25307	-155.95894	48.28886	426.17975	246.68526	53.51143	413.65674	34.54697	1048.78979	-730.75214	-132.23190	558.82800	-339.49078	27.96717	562.42944	-357.35825	-30.23843	623.48859	600.39960	145.14569	632.23962	591.30957	
5246	52.450	-220.93184	1.78924	-177.35223	186.51715	0.24746	-222.96640	-154.73528	47.86742	426.27435	247.72136	53.20891	413.53217	35.58387	1047.91296	-731.02228	-131.14160	558.50354	-339.51675	28.32769	561.93884	-356.99713	-29.18528	622.16260	598.11298	126.64285	620.06281	582.87604	
5247	52.460	-220.12315	1.72106	-177.11314	187.45668	0.25878	-222.89462	-153.76447	47.28964	426.51169	249.31569	52.93962	413.80936	36.72581	1046.99243	-731.34827	-129.83878	558.01666	-339.10147	29.32101	561.71246	-356.78491	-28.04128	622.17657	598.29767	128.10149	620.23785	583.01233	
5248	52.470	-219.01025	1.90397	-176.94864	188.59015	0.60996	-222.59337	-152.72047	46.94629	426.85587	249.85857	52.43584	413.87482	37.81274	1045.97754	-731.29517	-129.23317	557.76343	-338.94901	30.10647	561.39551	-356.58646	-26.68501	623.72168	600.90692	128.79533	620.11127	583.04163	
5249	52.480	-217.84534	2.23741	-177.00002	189.41003	1.00034	-222.52663	-151.39485	46.39824	426.96426	251.06503	52.00987	414.18317	38.95976	1045.16931	-731.33356	-127.27505	557.27063	-338.59573	31.49234	560.74268	-355.90936	-25.71079	623.57367	601.02631	129.70892	619.87531	583.28253	
5250	52.490	-217.11722	2.58076	-176.57700	190.45183	1.30146	-222.28819	-150.74146	46.04978	427.10339	251.69244	51.51078	414.33554	40.04343	1044.83569	-731.62616	-126.67437	557.16296	-338.57422	32.98563	560.63263	-356.62485	-24.90391	622.10052	598.04181	160.89740	636.77655	597.42102	
